<?xml version="1.0" standalone="no"?>
<!DOCTYPE svg PUBLIC "-//W3C//DTD SVG 20010904//EN"
 "http://www.w3.org/TR/2001/REC-SVG-20010904/DTD/svg10.dtd">
<svg version="1.0" xmlns="http://www.w3.org/2000/svg"
 width="498.000000pt" height="124.000000pt" viewBox="0 0 498.000000 124.000000"
 preserveAspectRatio="xMidYMid meet">

<g transform="translate(0.000000,124.000000) scale(0.100000,-0.100000)"
fill="#1d63ed" stroke="none">
<path d="M1910 1135 l0 -105 -40 0 -40 0 0 -95 0 -95 40 0 40 0 0 -245 0 -245
120 0 120 0 0 245 0 245 70 0 70 0 0 95 0 95 -70 0 -70 0 0 105 0 105 -120 0
-120 0 0 -105z"/>
<path d="M3950 1135 l0 -105 -40 0 -40 0 0 -95 0 -95 40 0 40 0 0 -245 0 -245
120 0 120 0 0 245 0 245 70 0 70 0 0 95 0 95 -70 0 -70 0 0 105 0 105 -120 0
-120 0 0 -105z"/>
<path d="M3477 1050 c-137 -24 -217 -111 -217 -235 0 -106 44 -151 179 -185
99 -24 127 -44 117 -84 -13 -51 -118 -52 -219 -2 l-48 23 -41 -80 c-38 -76
-39 -82 -22 -94 74 -54 271 -80 376 -49 120 35 188 119 188 233 0 114 -49 168
-184 203 -98 26 -125 47 -108 85 16 35 69 42 141 18 l59 -19 36 73 c20 40 36
75 36 77 0 2 -26 10 -57 19 -75 20 -176 28 -236 17z"/>
<path d="M4652 1049 c-71 -12 -123 -40 -165 -90 -58 -67 -70 -165 -31 -240 19
-38 69 -66 156 -88 100 -25 118 -35 118 -70 0 -41 -23 -55 -86 -54 -38 1 -75
11 -118 31 l-63 29 -41 -82 -41 -83 57 -25 c84 -37 128 -47 213 -47 115 0 214
37 267 100 65 77 67 213 4 283 -25 28 -83 55 -150 71 -84 19 -104 32 -100 64
2 18 13 31 33 41 29 14 63 11 150 -14 17 -5 26 7 58 64 20 39 37 72 37 74 0 3
-26 11 -57 20 -77 21 -176 28 -241 16z"/>
<path d="M250 1041 c-91 -28 -173 -103 -217 -196 -25 -53 -28 -72 -28 -160 0
-93 2 -105 33 -167 51 -105 142 -166 259 -176 81 -6 146 11 207 55 l49 35 -5
-72 c-8 -113 -58 -165 -160 -165 -55 0 -62 3 -89 33 l-29 32 -130 0 c-100 0
-130 -3 -130 -13 0 -29 68 -124 115 -159 78 -60 163 -81 295 -76 97 4 115 8
174 37 82 40 150 113 171 184 12 41 15 120 15 424 l0 373 -115 0 -115 0 0 -30
c0 -16 -3 -30 -6 -30 -3 0 -22 13 -42 29 -20 16 -52 34 -71 40 -38 12 -143 13
-181 2z m220 -203 c50 -26 90 -89 90 -143 0 -91 -94 -175 -180 -160 -76 13
-130 79 -130 160 0 51 16 89 52 122 50 47 103 54 168 21z"/>
<path d="M1180 1041 c-91 -28 -173 -103 -217 -196 -25 -53 -28 -72 -28 -160 0
-93 2 -105 33 -167 51 -105 142 -166 259 -176 81 -6 146 11 207 55 l49 35 -5
-72 c-8 -113 -58 -165 -160 -165 -55 0 -62 3 -89 33 l-29 32 -130 0 c-100 0
-130 -3 -130 -13 0 -29 68 -124 115 -159 78 -60 163 -81 295 -76 97 4 115 8
174 37 82 40 150 113 171 184 12 41 15 120 15 424 l0 373 -115 0 -115 0 0 -30
c0 -16 -3 -30 -6 -30 -3 0 -22 13 -42 29 -20 16 -52 34 -71 40 -38 12 -143 13
-181 2z m220 -203 c50 -26 90 -89 90 -143 0 -91 -94 -175 -180 -160 -76 13
-130 79 -130 160 0 51 16 89 52 122 50 47 103 54 168 21z"/>
<path d="M2609 1037 c-103 -29 -171 -88 -218 -187 -23 -49 -26 -67 -26 -165 0
-106 1 -112 34 -173 40 -74 84 -115 161 -151 73 -34 240 -42 323 -16 77 24
145 79 180 145 l28 55 -112 3 c-100 2 -114 1 -133 -17 -89 -84 -246 -28 -246
87 l0 32 251 0 252 0 -6 68 c-13 142 -70 235 -181 292 -61 31 -77 35 -164 37
-57 2 -116 -3 -143 -10z m216 -159 c23 -18 55 -72 55 -93 0 -3 -63 -5 -140 -5
-77 0 -140 2 -140 5 0 25 35 78 62 95 46 28 126 27 163 -2z"/>
</g>
</svg>
